<mxfile host="app.diagrams.net" modified="2022-05-16T13:42:51.719Z" agent="5.0 (Windows NT 10.0; Win64; x64) AppleWebKit/537.36 (KHTML, like Gecko) Chrome/101.0.4951.54 Safari/537.36 Edg/101.0.1210.39" etag="oi0b4N-4vLa_087cIeW_" version="18.0.3" type="github">
  <diagram id="sg7URXtoAdia5YOUxigq" name="Page-1">
    <mxGraphModel dx="1483" dy="781" grid="1" gridSize="10" guides="1" tooltips="1" connect="1" arrows="1" fold="1" page="1" pageScale="1" pageWidth="1000" pageHeight="1000" math="0" shadow="0">
      <root>
        <mxCell id="0" />
        <mxCell id="1" parent="0" />
        <mxCell id="cU69rQN6rx3Ek3NVx8qT-6" value="" style="edgeStyle=orthogonalEdgeStyle;rounded=0;orthogonalLoop=1;jettySize=auto;html=1;" edge="1" parent="1" source="cU69rQN6rx3Ek3NVx8qT-1" target="cU69rQN6rx3Ek3NVx8qT-3">
          <mxGeometry relative="1" as="geometry" />
        </mxCell>
        <mxCell id="cU69rQN6rx3Ek3NVx8qT-1" value="Node&lt;br&gt;（2MB）" style="rounded=0;whiteSpace=wrap;html=1;" vertex="1" parent="1">
          <mxGeometry x="120" y="80" width="80" height="40" as="geometry" />
        </mxCell>
        <mxCell id="cU69rQN6rx3Ek3NVx8qT-7" value="" style="edgeStyle=orthogonalEdgeStyle;rounded=0;orthogonalLoop=1;jettySize=auto;html=1;" edge="1" parent="1" source="cU69rQN6rx3Ek3NVx8qT-3" target="cU69rQN6rx3Ek3NVx8qT-4">
          <mxGeometry relative="1" as="geometry" />
        </mxCell>
        <mxCell id="cU69rQN6rx3Ek3NVx8qT-3" value="Node" style="rounded=0;whiteSpace=wrap;html=1;" vertex="1" parent="1">
          <mxGeometry x="240" y="80" width="80" height="40" as="geometry" />
        </mxCell>
        <mxCell id="cU69rQN6rx3Ek3NVx8qT-8" value="" style="edgeStyle=orthogonalEdgeStyle;rounded=0;orthogonalLoop=1;jettySize=auto;html=1;" edge="1" parent="1" source="cU69rQN6rx3Ek3NVx8qT-4" target="cU69rQN6rx3Ek3NVx8qT-5">
          <mxGeometry relative="1" as="geometry" />
        </mxCell>
        <mxCell id="cU69rQN6rx3Ek3NVx8qT-4" value="Node" style="rounded=0;whiteSpace=wrap;html=1;" vertex="1" parent="1">
          <mxGeometry x="360" y="80" width="80" height="40" as="geometry" />
        </mxCell>
        <mxCell id="cU69rQN6rx3Ek3NVx8qT-5" value="Node" style="rounded=0;whiteSpace=wrap;html=1;" vertex="1" parent="1">
          <mxGeometry x="480" y="80" width="80" height="40" as="geometry" />
        </mxCell>
        <mxCell id="cU69rQN6rx3Ek3NVx8qT-9" value="VirtualSpaceList" style="text;html=1;align=center;verticalAlign=middle;resizable=0;points=[];autosize=1;strokeColor=none;fillColor=none;" vertex="1" parent="1">
          <mxGeometry x="15" y="90" width="100" height="20" as="geometry" />
        </mxCell>
        <mxCell id="cU69rQN6rx3Ek3NVx8qT-10" value="Metachunk&amp;nbsp;" style="text;html=1;align=center;verticalAlign=middle;resizable=0;points=[];autosize=1;strokeColor=none;fillColor=none;" vertex="1" parent="1">
          <mxGeometry x="25" y="210" width="80" height="20" as="geometry" />
        </mxCell>
        <mxCell id="cU69rQN6rx3Ek3NVx8qT-11" value="1KB" style="rounded=0;whiteSpace=wrap;html=1;fillColor=#dae8fc;strokeColor=#6c8ebf;" vertex="1" parent="1">
          <mxGeometry x="120" y="200" width="40" height="40" as="geometry" />
        </mxCell>
        <mxCell id="cU69rQN6rx3Ek3NVx8qT-12" value="4KB" style="rounded=0;whiteSpace=wrap;html=1;fillColor=#fff2cc;strokeColor=#d6b656;" vertex="1" parent="1">
          <mxGeometry x="160" y="200" width="80" height="40" as="geometry" />
        </mxCell>
        <mxCell id="cU69rQN6rx3Ek3NVx8qT-13" value="" style="rounded=0;whiteSpace=wrap;html=1;fillColor=#e1d5e7;strokeColor=#9673a6;" vertex="1" parent="1">
          <mxGeometry x="360" y="200" width="120" height="40" as="geometry" />
        </mxCell>
        <mxCell id="cU69rQN6rx3Ek3NVx8qT-14" value="64KB" style="rounded=0;whiteSpace=wrap;html=1;fillColor=#e1d5e7;strokeColor=#9673a6;" vertex="1" parent="1">
          <mxGeometry x="240" y="200" width="120" height="40" as="geometry" />
        </mxCell>
        <mxCell id="cU69rQN6rx3Ek3NVx8qT-15" value="" style="rounded=0;whiteSpace=wrap;html=1;fillColor=#e1d5e7;strokeColor=#9673a6;" vertex="1" parent="1">
          <mxGeometry x="120" y="240" width="120" height="40" as="geometry" />
        </mxCell>
        <mxCell id="cU69rQN6rx3Ek3NVx8qT-16" value="" style="rounded=0;whiteSpace=wrap;html=1;fillColor=#fff2cc;strokeColor=#d6b656;" vertex="1" parent="1">
          <mxGeometry x="240" y="240" width="80" height="40" as="geometry" />
        </mxCell>
        <mxCell id="cU69rQN6rx3Ek3NVx8qT-18" value="" style="rounded=0;whiteSpace=wrap;html=1;fillColor=#fff2cc;strokeColor=#d6b656;" vertex="1" parent="1">
          <mxGeometry x="360" y="240" width="80" height="40" as="geometry" />
        </mxCell>
        <mxCell id="cU69rQN6rx3Ek3NVx8qT-20" value="" style="rounded=0;whiteSpace=wrap;html=1;fillColor=#dae8fc;strokeColor=#6c8ebf;" vertex="1" parent="1">
          <mxGeometry x="440" y="240" width="40" height="40" as="geometry" />
        </mxCell>
        <mxCell id="cU69rQN6rx3Ek3NVx8qT-21" value="" style="rounded=0;whiteSpace=wrap;html=1;fillColor=#dae8fc;strokeColor=#6c8ebf;" vertex="1" parent="1">
          <mxGeometry x="480" y="240" width="40" height="40" as="geometry" />
        </mxCell>
        <mxCell id="cU69rQN6rx3Ek3NVx8qT-23" value="ChunkManager" style="text;html=1;align=center;verticalAlign=middle;resizable=0;points=[];autosize=1;strokeColor=none;fillColor=none;" vertex="1" parent="1">
          <mxGeometry x="640" y="50" width="100" height="20" as="geometry" />
        </mxCell>
        <mxCell id="cU69rQN6rx3Ek3NVx8qT-24" value="" style="rounded=0;whiteSpace=wrap;html=1;" vertex="1" parent="1">
          <mxGeometry x="640" y="80" width="440" height="40" as="geometry" />
        </mxCell>
        <mxCell id="cU69rQN6rx3Ek3NVx8qT-25" value="" style="rounded=0;whiteSpace=wrap;html=1;fillColor=#dae8fc;strokeColor=#6c8ebf;" vertex="1" parent="1">
          <mxGeometry x="480" y="200" width="40" height="40" as="geometry" />
        </mxCell>
        <mxCell id="cU69rQN6rx3Ek3NVx8qT-26" value="" style="rounded=0;whiteSpace=wrap;html=1;fillColor=#dae8fc;strokeColor=#6c8ebf;" vertex="1" parent="1">
          <mxGeometry x="320" y="240" width="40" height="40" as="geometry" />
        </mxCell>
        <mxCell id="cU69rQN6rx3Ek3NVx8qT-30" value="Metablock" style="text;html=1;align=center;verticalAlign=middle;resizable=0;points=[];autosize=1;strokeColor=none;fillColor=none;" vertex="1" parent="1">
          <mxGeometry x="40" y="370" width="70" height="20" as="geometry" />
        </mxCell>
        <mxCell id="cU69rQN6rx3Ek3NVx8qT-31" value="" style="rounded=0;whiteSpace=wrap;html=1;fillColor=#dae8fc;strokeColor=#6c8ebf;" vertex="1" parent="1">
          <mxGeometry x="120" y="360" width="40" height="40" as="geometry" />
        </mxCell>
        <mxCell id="cU69rQN6rx3Ek3NVx8qT-32" value="" style="rounded=0;whiteSpace=wrap;html=1;fillColor=#fff2cc;strokeColor=#d6b656;" vertex="1" parent="1">
          <mxGeometry x="160" y="360" width="40" height="40" as="geometry" />
        </mxCell>
        <mxCell id="cU69rQN6rx3Ek3NVx8qT-33" value="" style="rounded=0;whiteSpace=wrap;html=1;fillColor=#fff2cc;strokeColor=#d6b656;" vertex="1" parent="1">
          <mxGeometry x="200" y="360" width="40" height="40" as="geometry" />
        </mxCell>
        <mxCell id="cU69rQN6rx3Ek3NVx8qT-34" value="" style="rounded=0;whiteSpace=wrap;html=1;fillColor=#fff2cc;strokeColor=#d6b656;" vertex="1" parent="1">
          <mxGeometry x="240" y="360" width="40" height="40" as="geometry" />
        </mxCell>
        <mxCell id="cU69rQN6rx3Ek3NVx8qT-35" value="" style="rounded=0;whiteSpace=wrap;html=1;fillColor=#fff2cc;strokeColor=#d6b656;" vertex="1" parent="1">
          <mxGeometry x="280" y="360" width="40" height="40" as="geometry" />
        </mxCell>
        <mxCell id="cU69rQN6rx3Ek3NVx8qT-36" value="" style="rounded=0;whiteSpace=wrap;html=1;fillColor=#e1d5e7;strokeColor=#9673a6;" vertex="1" parent="1">
          <mxGeometry x="320" y="360" width="40" height="40" as="geometry" />
        </mxCell>
        <mxCell id="cU69rQN6rx3Ek3NVx8qT-37" value="" style="rounded=0;whiteSpace=wrap;html=1;fillColor=#e1d5e7;strokeColor=#9673a6;" vertex="1" parent="1">
          <mxGeometry x="360" y="360" width="40" height="40" as="geometry" />
        </mxCell>
        <mxCell id="cU69rQN6rx3Ek3NVx8qT-38" value="" style="rounded=0;whiteSpace=wrap;html=1;fillColor=#e1d5e7;strokeColor=#9673a6;" vertex="1" parent="1">
          <mxGeometry x="400" y="360" width="40" height="40" as="geometry" />
        </mxCell>
        <mxCell id="cU69rQN6rx3Ek3NVx8qT-39" value="" style="rounded=0;whiteSpace=wrap;html=1;fillColor=#e1d5e7;strokeColor=#9673a6;" vertex="1" parent="1">
          <mxGeometry x="440" y="360" width="40" height="40" as="geometry" />
        </mxCell>
        <mxCell id="cU69rQN6rx3Ek3NVx8qT-40" value="" style="rounded=0;whiteSpace=wrap;html=1;fillColor=#e1d5e7;strokeColor=#9673a6;" vertex="1" parent="1">
          <mxGeometry x="480" y="360" width="40" height="40" as="geometry" />
        </mxCell>
        <mxCell id="cU69rQN6rx3Ek3NVx8qT-41" value="" style="shape=curlyBracket;whiteSpace=wrap;html=1;rounded=1;rotation=-90;" vertex="1" parent="1">
          <mxGeometry x="130" y="390" width="20" height="40" as="geometry" />
        </mxCell>
        <mxCell id="cU69rQN6rx3Ek3NVx8qT-42" value="" style="shape=curlyBracket;whiteSpace=wrap;html=1;rounded=1;rotation=-90;" vertex="1" parent="1">
          <mxGeometry x="230" y="330" width="20" height="160" as="geometry" />
        </mxCell>
        <mxCell id="cU69rQN6rx3Ek3NVx8qT-43" value="" style="shape=curlyBracket;whiteSpace=wrap;html=1;rounded=1;rotation=-90;" vertex="1" parent="1">
          <mxGeometry x="410" y="310" width="20" height="200" as="geometry" />
        </mxCell>
        <mxCell id="cU69rQN6rx3Ek3NVx8qT-44" value="header" style="text;html=1;align=center;verticalAlign=middle;resizable=0;points=[];autosize=1;strokeColor=none;fillColor=none;" vertex="1" parent="1">
          <mxGeometry x="115" y="420" width="50" height="20" as="geometry" />
        </mxCell>
        <mxCell id="cU69rQN6rx3Ek3NVx8qT-45" value="已分配的 Metablock" style="text;html=1;align=center;verticalAlign=middle;resizable=0;points=[];autosize=1;strokeColor=none;fillColor=none;" vertex="1" parent="1">
          <mxGeometry x="180" y="420" width="120" height="20" as="geometry" />
        </mxCell>
        <mxCell id="cU69rQN6rx3Ek3NVx8qT-46" value="未分配的 Metablock" style="text;html=1;align=center;verticalAlign=middle;resizable=0;points=[];autosize=1;strokeColor=none;fillColor=none;" vertex="1" parent="1">
          <mxGeometry x="360" y="420" width="120" height="20" as="geometry" />
        </mxCell>
        <mxCell id="cU69rQN6rx3Ek3NVx8qT-56" value="" style="shape=flexArrow;endArrow=classic;html=1;rounded=0;width=4;endSize=5.275862068965518;endWidth=5.517241379310345;entryX=0.1;entryY=0.5;entryDx=0;entryDy=0;entryPerimeter=0;exitX=0.1;exitY=0.5;exitDx=0;exitDy=0;exitPerimeter=0;" edge="1" parent="1" source="cU69rQN6rx3Ek3NVx8qT-61" target="cU69rQN6rx3Ek3NVx8qT-57">
          <mxGeometry width="50" height="50" relative="1" as="geometry">
            <mxPoint x="163" y="131" as="sourcePoint" />
            <mxPoint x="313" y="181" as="targetPoint" />
          </mxGeometry>
        </mxCell>
        <mxCell id="cU69rQN6rx3Ek3NVx8qT-57" value="" style="shape=curlyBracket;whiteSpace=wrap;html=1;rounded=1;rotation=90;size=0.5;" vertex="1" parent="1">
          <mxGeometry x="310" y="-10" width="20" height="400" as="geometry" />
        </mxCell>
        <mxCell id="cU69rQN6rx3Ek3NVx8qT-58" value="" style="shape=flexArrow;endArrow=classic;html=1;rounded=0;width=4;endSize=5.275862068965518;endWidth=5.517241379310345;entryX=0.1;entryY=0.5;entryDx=0;entryDy=0;entryPerimeter=0;exitX=0.1;exitY=0.5;exitDx=0;exitDy=0;exitPerimeter=0;" edge="1" parent="1" source="cU69rQN6rx3Ek3NVx8qT-60" target="cU69rQN6rx3Ek3NVx8qT-59">
          <mxGeometry width="50" height="50" relative="1" as="geometry">
            <mxPoint x="190" y="290" as="sourcePoint" />
            <mxPoint x="316" y="338" as="targetPoint" />
          </mxGeometry>
        </mxCell>
        <mxCell id="cU69rQN6rx3Ek3NVx8qT-59" value="" style="shape=curlyBracket;whiteSpace=wrap;html=1;rounded=1;rotation=90;size=0.5;" vertex="1" parent="1">
          <mxGeometry x="310" y="150" width="20" height="400" as="geometry" />
        </mxCell>
        <mxCell id="cU69rQN6rx3Ek3NVx8qT-60" value="" style="shape=curlyBracket;whiteSpace=wrap;html=1;rounded=1;rotation=-90;" vertex="1" parent="1">
          <mxGeometry x="170" y="230" width="20" height="120" as="geometry" />
        </mxCell>
        <mxCell id="cU69rQN6rx3Ek3NVx8qT-61" value="" style="shape=curlyBracket;whiteSpace=wrap;html=1;rounded=1;rotation=-90;" vertex="1" parent="1">
          <mxGeometry x="150" y="90" width="20" height="80" as="geometry" />
        </mxCell>
      </root>
    </mxGraphModel>
  </diagram>
</mxfile>
